<?xml version="1.0" encoding="utf-8"?>
<!-- Generator: Adobe Illustrator 23.1.1, SVG Export Plug-In . SVG Version: 6.00 Build 0)  -->
<svg version="1.1" id="Layer_1" xmlns="http://www.w3.org/2000/svg" xmlns:xlink="http://www.w3.org/1999/xlink" x="0px" y="0px"
	 viewBox="0 0 427.6 181.7" style="enable-background:new 0 0 427.6 181.7;" xml:space="preserve">
<style type="text/css">
	.st0{fill:#FFFFFF;}
</style>
<path class="st0" d="M205.3,47.7v17c0,5.6-4.6,10.2-10.2,10.2h-23.2V22.7h-8.2c-1.8,0-3.2,1.4-3.2,3.2v49h-24.7v-7c0-16-13-29-29-29
	h-10V47c0,1.8,1.4,3.2,3.2,3.2h6.8c9.8,0,17.7,7.9,17.7,17.7v7H95c-1.8,0-3.2,1.4-3.2,3.2v8.2h32.7h5.1h30.9h5.7h28.9
	c11.9,0,21.5-9.6,21.5-21.5V44.5h-8.2C206.7,44.5,205.3,45.9,205.3,47.7"/>
<path class="st0" d="M82,74.9H30.3h-8.8c-5.6,0-10.2-4.6-10.2-10.2v-17c0-1.8-1.4-3.2-3.2-3.2H0v20.1c0,11.9,9.6,21.5,21.5,21.5h8.8
	h9h45.9v-8.2C85.1,76.3,83.7,74.9,82,74.9"/>
<path class="st0" d="M184,91.4c-3.4,0-6.2,2.8-6.2,6.2s2.8,6.2,6.2,6.2s6.2-2.8,6.2-6.2S187.4,91.4,184,91.4"/>
<path class="st0" d="M52.2,91.4c-3.4,0-6.2,2.8-6.2,6.2s2.8,6.2,6.2,6.2s6.2-2.8,6.2-6.2S55.6,91.4,52.2,91.4"/>
<path class="st0" d="M38.8,91.4c-3.4,0-6.2,2.8-6.2,6.2s2.8,6.2,6.2,6.2S45,101,45,97.6S42.3,91.4,38.8,91.4"/>
<path class="st0" d="M5.1,122.1c2.2-4.2,7.1-6.1,11.5-6.1c8.7,0,15.5,5.6,15.5,15.9c0,10.1-6.8,15.9-15.6,15.9c-4.5,0-9-2-11.4-6.1
	l-0.2,5.6H0v-40.9h5.1V122.1z M5.3,131.8c0,6.7,4.8,11.2,10.9,11.2c6,0,10.8-4,10.8-11.1c0-7.2-4.8-11.1-10.8-11.1
	C10.2,120.8,5.3,125.2,5.3,131.8"/>
<path class="st0" d="M67.8,147.3l-0.1-5.6c-2.4,4.2-7.1,6.2-11.3,6.2c-8.8,0-15.7-6.1-15.7-16.1c0-9.9,7-15.9,15.8-15.8
	c4.6,0,9.1,2.1,11.4,6.1l0.1-5.6h5v30.6h-4.9L67.8,147.3z M56.6,120.9c-6.1,0-11,4.3-11,11.2c0,6.8,4.9,11.2,11,11.2
	C71.4,143.3,71.4,120.8,56.6,120.9L56.6,120.9z"/>
<rect x="85.6" y="106.3" class="st0" width="5.1" height="40.9"/>
<path class="st0" d="M128.7,147.3l-0.1-5.6c-2.4,4.2-7.1,6.2-11.3,6.2c-8.8,0-15.7-6.1-15.7-16.1c0-9.9,7-15.9,15.8-15.8
	c4.6,0,9.1,2.1,11.4,6.1l0.1-5.6h5v30.6H129L128.7,147.3z M117.5,120.9c-6.1,0-11,4.3-11,11.2c0,6.8,4.9,11.2,11,11.2
	C132.3,143.3,132.3,120.8,117.5,120.9L117.5,120.9z"/>
<path class="st0" d="M176.3,106.3v40.9h-4.8l-0.2-5.6c-2.5,4.2-6.9,6.2-11.5,6.2c-8.7,0-15.5-5.8-15.5-15.9
	c0-10.3,6.8-15.9,15.4-15.9c4.3,0,9.3,2,11.5,6.1v-15.8H176.3L176.3,106.3z M160.1,120.7c-6,0-10.8,3.9-10.8,11.1
	c0,7.1,4.8,11.1,10.8,11.1c6.1,0,10.9-4.5,10.9-11.2C171,125.2,166.1,120.7,160.1,120.7L160.1,120.7z"/>
<polygon class="st0" points="211.1,116.6 204.3,132.6 201,141.3 197.7,132.5 191.6,116.6 185.9,116.6 198.2,146.8 193,159 
	198.4,159 216.6,116.6 "/>
<path class="st0" d="M337,0v20.5c-1,1-3.3,4-6.2,13.9c-0.1,0.2-0.4,0.4-0.6,0.2c-1.8-1.4-9.7-6.5-22.9-1.8c-0.3,0.1-0.3,0.5,0,0.7
	c1.8,0.8,6.1,2.8,8.5,5.5c0.2,0.2,0,0.6-0.3,0.6c-5-0.2-33.4,0.6-55.2,34.9c-0.2,0.3,0.2,0.7,0.5,0.5c5.4-3.8,24.8-16.5,41.8-15.1
	c0.4,0,0.5,0.5,0.1,0.7c-6.1,2.8-33.2,17.7-39.4,60.1c-0.1,0.4,0.5,0.6,0.7,0.2c3.8-6.7,19.2-31.9,40.5-40.8
	c0.3-0.1,0.6,0.3,0.4,0.6c-4.1,5.1-20.4,27.7-16.9,65c0,0.4,0.6,0.4,0.7,0.1c2.2-7.2,11.6-35.5,27.3-52.6c0.3-0.3,0.7-0.1,0.6,0.3
	c-1,6.5-5.7,38.3-0.2,63.2c0.1,0.4,0.7,0.3,0.7-0.1c0.9-9.4,4.9-46.6,13.3-58c0.1-0.1,0.2-0.1,0.3-0.1c0,0,0.1,0,0.3,0l1.8,22.8
	h-3.1l2.4,30.5h-3l1.5,30.1c-47.1-3.4-84.3-42.7-84.3-90.7C246.4,40.9,287,0.2,337,0"/>
<path class="st0" d="M337.1,0v20.5c1,1,3.3,4,6.2,13.9c0.1,0.2,0.4,0.4,0.6,0.2c1.8-1.4,9.7-6.5,22.9-1.8c0.3,0.1,0.3,0.5,0,0.7
	c-1.8,0.8-6.1,2.8-8.5,5.5c-0.2,0.2,0,0.6,0.3,0.6c5-0.2,33.4,0.6,55.2,34.9c0.2,0.3-0.2,0.7-0.5,0.5c-5.4-3.8-24.8-16.5-41.8-15.1
	c-0.4,0-0.4,0.5-0.1,0.7c6.1,2.8,33.2,17.7,39.4,60.1c0.1,0.4-0.5,0.6-0.7,0.2c-3.8-6.7-19.2-31.9-40.5-40.8
	c-0.3-0.1-0.6,0.3-0.4,0.6c4.1,5.1,20.4,27.7,16.9,65c0,0.4-0.6,0.4-0.7,0.1c-2.2-7.2-11.6-35.5-27.3-52.6c-0.3-0.3-0.7-0.1-0.6,0.3
	c1,6.5,5.7,38.3,0.2,63.2c-0.1,0.4-0.7,0.3-0.7-0.1c-0.9-9.4-4.9-46.6-13.3-58c-0.1-0.1-0.2-0.1-0.3-0.1c0,0-0.1,0-0.3,0l-1.8,22.8
	h3.1l-2.4,30.5h3l-1.5,30.1c47.1-3.4,84.3-42.7,84.3-90.7C427.6,40.9,387.1,0.2,337.1,0"/>
</svg>
