<?xml version="1.0" encoding="utf-8"?>
<!-- Generator: Adobe Illustrator 23.1.1, SVG Export Plug-In . SVG Version: 6.00 Build 0)  -->
<svg version="1.1" id="Layer_1" xmlns="http://www.w3.org/2000/svg" xmlns:xlink="http://www.w3.org/1999/xlink" x="0px" y="0px"
	 viewBox="0 0 181.5 181.9" style="enable-background:new 0 0 181.5 181.9;" xml:space="preserve">
<style type="text/css">
	.st0{fill:#07706D;}
	.st1{fill:#85BD48;}
</style>
<path class="st0" d="M90.7,0v20.5c-1,1-3.3,4-6.2,13.9c-0.1,0.2-0.4,0.4-0.6,0.2c-1.8-1.4-9.7-6.5-22.9-1.8c-0.3,0.1-0.3,0.5,0,0.7
	c1.8,0.8,6.1,2.8,8.5,5.5c0.2,0.2,0,0.6-0.3,0.6c-5-0.2-33.4,0.6-55.2,34.9c-0.2,0.3,0.2,0.7,0.5,0.5c5.4-3.8,24.8-16.5,41.8-15.1
	c0.4,0,0.5,0.5,0.1,0.7c-6.1,2.8-33.2,17.7-39.4,60.1c-0.1,0.4,0.5,0.6,0.7,0.2c3.8-6.7,19.2-31.9,40.5-40.8
	c0.3-0.1,0.6,0.3,0.4,0.6c-4.1,5.1-20.4,27.7-16.9,65c0,0.4,0.6,0.4,0.7,0.1c2.2-7.2,11.6-35.5,27.3-52.6c0.3-0.3,0.7-0.1,0.6,0.3
	c-1,6.5-5.7,38.3-0.2,63.2c0.1,0.4,0.7,0.3,0.7-0.1c0.9-9.4,4.9-46.6,13.3-58c0.1-0.1,0.2-0.1,0.3-0.1c0,0,0.1,0,0.3,0l1.8,22.8
	h-3.1l2.4,30.5h-3l1.5,30.1C37.2,178.5,0,139.2,0,91.2C0.1,40.9,40.7,0.2,90.7,0"/>
<path class="st1" d="M90.8,0v20.5c1,1,3.3,4,6.2,13.9c0.1,0.2,0.4,0.4,0.6,0.2c1.8-1.4,9.7-6.5,22.9-1.8c0.3,0.1,0.3,0.5,0,0.7
	c-1.8,0.8-6.1,2.8-8.5,5.5c-0.2,0.2,0,0.6,0.3,0.6c5-0.2,33.4,0.6,55.2,34.9c0.2,0.3-0.2,0.7-0.5,0.5c-5.4-3.8-24.8-16.5-41.8-15.1
	c-0.4,0-0.4,0.5-0.1,0.7c6.1,2.8,33.2,17.7,39.4,60.1c0.1,0.4-0.5,0.6-0.7,0.2c-3.8-6.7-19.2-31.9-40.5-40.8
	c-0.3-0.1-0.6,0.3-0.4,0.6c4.1,5.1,20.4,27.7,16.9,65c0,0.4-0.6,0.4-0.7,0.1c-2.2-7.2-11.6-35.5-27.3-52.6c-0.3-0.3-0.7-0.1-0.6,0.3
	c1,6.5,5.7,38.3,0.2,63.2c-0.1,0.4-0.7,0.3-0.7-0.1c-0.9-9.4-4.9-46.6-13.3-58c-0.1-0.1-0.2-0.1-0.3-0.1c0,0-0.1,0-0.3,0L95,121.3
	h3.1l-2.4,30.5h3l-1.5,30.1c47.1-3.4,84.3-42.7,84.3-90.7C181.3,40.9,140.8,0.2,90.8,0"/>
</svg>
