<svg width="95" height="40" viewBox="0 0 95 40" fill="none" xmlns="http://www.w3.org/2000/svg">
<g clip-path="url(#clip0_228_2239)">
<path d="M45.1952 10.5008V14.2433C45.1952 15.4761 44.1826 16.4887 42.9498 16.4887H37.8424V4.99725H36.0373C35.641 4.99725 35.3328 5.30545 35.3328 5.70171V16.4887H29.8953V14.9477C29.8953 11.4254 27.0334 8.56357 23.5111 8.56357H21.3097V10.3467C21.3097 10.743 21.6179 11.0512 22.0142 11.0512H23.5111C25.6685 11.0512 27.4077 12.7903 27.4077 14.9477V16.4887H20.9134C20.5172 16.4887 20.209 16.7969 20.209 17.1932V18.9984H27.4077H28.5304H35.3328H36.5876H42.9498C45.5695 18.9984 47.6828 16.885 47.6828 14.2653V9.79637H45.8777C45.5034 9.79637 45.1952 10.1046 45.1952 10.5008Z" fill="#0F1721"/>
<path d="M18.0517 16.4887H6.67034H4.73308C3.50028 16.4887 2.48762 15.476 2.48762 14.2432V10.5008C2.48762 10.1046 2.17942 9.79636 1.78316 9.79636H0V14.2212C0 16.8409 2.11337 18.9543 4.73308 18.9543H6.67034H8.65162H18.7562V17.1491C18.7342 16.7969 18.426 16.4887 18.0517 16.4887Z" fill="#0F1721"/>
<path d="M40.5065 20.1211C39.758 20.1211 39.1416 20.7375 39.1416 21.486C39.1416 22.2345 39.758 22.8509 40.5065 22.8509C41.255 22.8509 41.8714 22.2345 41.8714 21.486C41.8714 20.7375 41.255 20.1211 40.5065 20.1211Z" fill="#0F1721"/>
<path d="M11.4914 20.1211C10.7429 20.1211 10.1265 20.7375 10.1265 21.486C10.1265 22.2345 10.7429 22.8509 11.4914 22.8509C12.2398 22.8509 12.8562 22.2345 12.8562 21.486C12.8562 20.7375 12.2398 20.1211 11.4914 20.1211Z" fill="#0F1721"/>
<path d="M8.54165 20.1211C7.79316 20.1211 7.17676 20.7375 7.17676 21.486C7.17676 22.2345 7.79316 22.8509 8.54165 22.8509C9.29013 22.8509 9.90653 22.2345 9.90653 21.486C9.90653 20.7375 9.31215 20.1211 8.54165 20.1211Z" fill="#0F1721"/>
<path d="M1.12273 26.8795C1.60704 25.9549 2.68575 25.5366 3.65438 25.5366C5.56962 25.5366 7.06659 26.7694 7.06659 29.0369C7.06659 31.2603 5.56962 32.5371 3.63236 32.5371C2.64172 32.5371 1.65107 32.0969 1.12273 31.1943L1.0787 32.4271H0V23.4232H1.12273V26.8795ZM1.16676 29.0149C1.16676 30.4898 2.22345 31.4805 3.56632 31.4805C4.88718 31.4805 5.94386 30.5999 5.94386 29.0369C5.94386 27.4518 4.88718 26.5933 3.56632 26.5933C2.24546 26.5933 1.16676 27.5619 1.16676 29.0149Z" fill="#0F1721"/>
<path d="M14.9258 32.4271L14.9038 31.1943C14.3755 32.1189 13.3408 32.5592 12.4162 32.5592C10.4789 32.5592 8.95996 31.2163 8.95996 29.0148C8.95996 26.8354 10.501 25.5146 12.4382 25.5366C13.4509 25.5366 14.4415 25.9989 14.9479 26.8795L14.9699 25.6467H16.0706V32.383H14.9919L14.9258 32.4271ZM12.4602 26.6153C11.1174 26.6153 10.0387 27.5619 10.0387 29.0809C10.0387 30.5779 11.1174 31.5465 12.4602 31.5465C15.7184 31.5465 15.7184 26.5933 12.4602 26.6153Z" fill="#0F1721"/>
<path d="M19.967 23.4012H18.8442V32.4051H19.967V23.4012Z" fill="#0F1721"/>
<path d="M28.3326 32.4271L28.3106 31.1943C27.7822 32.1189 26.7475 32.5592 25.8229 32.5592C23.8857 32.5592 22.3667 31.2163 22.3667 29.0148C22.3667 26.8354 23.9077 25.5146 25.845 25.5366C26.8576 25.5366 27.8483 25.9989 28.3546 26.8795L28.3766 25.6467H29.4773V32.383H28.3986L28.3326 32.4271ZM25.867 26.6153C24.5241 26.6153 23.4454 27.5619 23.4454 29.0809C23.4454 30.5779 24.5241 31.5465 25.867 31.5465C29.1251 31.5465 29.1251 26.5933 25.867 26.6153Z" fill="#0F1721"/>
<path d="M38.8112 23.4012V32.4051H37.7545L37.7105 31.1723C37.1601 32.0969 36.1915 32.5372 35.1788 32.5372C33.2636 32.5372 31.7666 31.2603 31.7666 29.0369C31.7666 26.7694 33.2636 25.5366 35.1568 25.5366C36.1034 25.5366 37.2041 25.9769 37.6884 26.8795V23.4012H38.8112ZM35.2449 26.5713C33.924 26.5713 32.8673 27.4298 32.8673 29.0149C32.8673 30.5779 33.924 31.4585 35.2449 31.4585C36.5877 31.4585 37.6444 30.4678 37.6444 28.9928C37.6444 27.5619 36.5657 26.5713 35.2449 26.5713Z" fill="#0F1721"/>
<path d="M46.4724 25.6687L44.9754 29.191L44.249 31.1062L43.5225 29.1689L42.1796 25.6687H40.9248L43.6326 32.317L42.4878 35.0027H43.6766L47.6832 25.6687H46.4724Z" fill="#0F1721"/>
<path d="M74.1882 0V4.51293C73.968 4.73308 73.4617 5.39351 72.8233 7.57292C72.8013 7.61695 72.7352 7.66098 72.6912 7.61695C72.2949 7.30875 70.5558 6.18602 67.6499 7.22069C67.5839 7.24271 67.5839 7.33077 67.6499 7.37479C68.0462 7.55091 68.9928 7.99119 69.5211 8.58558C69.5652 8.62961 69.5211 8.71767 69.4551 8.71767C68.3544 8.67364 62.1023 8.84975 57.3032 16.4007C57.2592 16.4667 57.3472 16.5548 57.4133 16.5107C58.602 15.6742 62.8728 12.8784 66.6152 13.1866C66.7033 13.1866 66.7253 13.2966 66.6373 13.3407C65.2944 13.9571 59.3285 17.2372 57.9636 26.5713C57.9416 26.6593 58.0737 26.7034 58.1177 26.6153C58.9543 25.1403 62.3445 19.5927 67.0335 17.6335C67.0996 17.6114 67.1656 17.6995 67.1216 17.7655C66.219 18.8883 62.6307 23.8635 63.4012 32.0749C63.4012 32.1629 63.5332 32.1629 63.5553 32.0969C64.0396 30.5118 66.1089 24.2818 69.5652 20.5173C69.6312 20.4513 69.7193 20.4953 69.6973 20.5834C69.4771 22.0143 68.4424 29.0149 69.6532 34.4964C69.6752 34.5845 69.8073 34.5625 69.8073 34.4744C70.0055 32.4051 70.886 24.2157 72.7352 21.7061C72.7572 21.6841 72.7793 21.6841 72.8013 21.6841C72.8013 21.6841 72.8233 21.6841 72.8673 21.6841L73.2636 26.7034H72.5811L73.1095 33.4177H72.449L72.7793 40.044C62.4105 39.2955 54.2212 30.6439 54.2212 20.0771C54.2432 9.00385 63.181 0.0440286 74.1882 0Z" fill="#12706D"/>
<path d="M74.21 0V4.51293C74.4301 4.73308 74.9364 5.39351 75.5748 7.57292C75.5969 7.61695 75.6629 7.66098 75.7069 7.61695C76.1032 7.30875 77.8423 6.18602 80.7482 7.22069C80.8142 7.24271 80.8142 7.33077 80.7482 7.37479C80.3519 7.55091 79.4053 7.99119 78.877 8.58558C78.833 8.62961 78.877 8.71767 78.943 8.71767C80.0438 8.67364 86.2958 8.84975 91.0949 16.4007C91.139 16.4667 91.0509 16.5548 90.9849 16.5107C89.7961 15.6742 85.5253 12.8784 81.7829 13.1866C81.6948 13.1866 81.6948 13.2966 81.7609 13.3407C83.1037 13.9571 89.0696 17.2372 90.4345 26.5713C90.4565 26.6593 90.3244 26.7034 90.2804 26.6153C89.4439 25.1403 86.0537 19.5927 81.3646 17.6335C81.2986 17.6114 81.2325 17.6995 81.2766 17.7655C82.1791 18.8883 85.7675 23.8635 84.997 32.0749C84.997 32.1629 84.8649 32.1629 84.8429 32.0969C84.3586 30.5118 82.2892 24.2818 78.833 20.5173C78.7669 20.4513 78.6789 20.4953 78.7009 20.5834C78.921 22.0143 79.9557 29.0149 78.7449 34.4964C78.7229 34.5845 78.5908 34.5625 78.5908 34.4744C78.3927 32.4051 77.5121 24.2157 75.6629 21.7061C75.6409 21.6841 75.6189 21.6841 75.5969 21.6841C75.5969 21.6841 75.5748 21.6841 75.5308 21.6841L75.1346 26.7034H75.817L75.2887 33.4177H75.9491L75.6189 40.044C85.9876 39.2955 94.1769 30.6439 94.1769 20.0771C94.1329 9.00385 85.2171 0.0440286 74.21 0Z" fill="#87BC50"/>
</g>
<defs>
<clipPath id="clip0_228_2239">
<rect width="94.1332" height="40" fill="white"/>
</clipPath>
</defs>
</svg>
